<?xml version="1.0" encoding="UTF-8" ?>
<!DOCTYPE svg PUBLIC "-//W3C//DTD SVG 1.1//EN" "http://www.w3.org/Graphics/SVG/1.1/DTD/svg11.dtd">
<svg width="512pt" height="512pt" viewBox="0 0 512 512" version="1.1" xmlns="http://www.w3.org/2000/svg">
<g id="#f27722ff">
<path fill="#f27722" opacity="1.00" d=" M 12.82 27.84 C 16.13 19.76 24.14 13.74 32.89 13.13 C 36.92 12.84 40.96 13.03 45.00 13.00 C 185.00 13.00 325.00 13.00 465.00 13.00 C 471.30 13.09 477.99 12.29 483.86 15.13 C 492.62 18.99 498.47 28.40 498.02 37.98 C 497.93 137.26 498.11 236.55 497.92 335.83 C 448.28 335.55 398.64 335.79 349.00 335.71 C 251.67 335.71 154.33 335.71 57.00 335.71 C 41.69 335.78 26.38 335.56 11.08 335.83 C 10.88 238.22 11.08 140.61 10.98 43.00 C 10.96 37.92 10.71 32.60 12.82 27.84 M 215.99 70.39 C 173.31 70.39 130.63 70.42 87.96 70.37 C 83.69 70.46 79.14 71.04 75.60 73.64 C 72.81 75.93 71.14 79.22 69.22 82.20 C 61.76 94.49 53.84 106.50 46.59 118.92 C 50.82 117.02 55.31 115.52 60.01 115.68 C 104.67 115.69 149.34 115.67 194.00 115.69 C 199.60 115.61 205.55 116.37 210.76 113.85 C 214.87 112.02 216.82 107.73 219.11 104.16 C 226.42 92.03 234.37 80.28 241.35 67.95 C 233.31 71.37 224.48 70.25 215.99 70.39 M 266.54 77.58 C 258.03 91.41 249.24 105.08 240.91 119.02 C 245.01 117.07 249.40 115.55 254.01 115.69 C 297.02 115.65 340.04 115.70 383.05 115.75 C 386.28 115.50 389.46 117.21 390.65 120.30 C 394.67 130.05 387.16 143.67 376.01 143.37 C 355.65 143.40 335.29 143.40 314.93 143.35 C 310.70 143.35 306.24 144.10 302.81 146.76 C 299.69 149.45 297.93 153.29 295.70 156.69 C 272.51 193.78 249.39 230.92 226.15 267.98 C 230.34 265.54 235.03 263.97 239.93 264.20 C 288.29 264.14 336.64 264.18 384.99 264.18 C 393.99 264.32 402.77 261.16 410.23 256.26 C 422.44 248.23 432.65 236.89 438.43 223.38 C 443.10 212.69 445.26 200.17 441.03 188.98 C 437.30 178.37 428.59 170.23 418.69 165.30 C 413.94 162.58 408.55 161.38 403.62 159.09 C 409.32 156.35 415.29 154.12 420.61 150.62 C 433.02 143.15 443.94 131.64 447.10 117.12 C 448.42 108.86 448.21 100.03 444.67 92.31 C 440.48 82.81 432.47 74.65 422.40 71.60 C 416.77 69.81 410.80 70.47 405.00 70.39 C 363.65 70.39 322.29 70.40 280.94 70.38 C 275.40 70.39 269.38 72.51 266.54 77.58 M 129.32 143.37 C 125.55 177.19 122.70 211.13 118.98 244.96 C 118.78 248.31 118.07 252.02 119.94 255.05 C 123.29 260.51 129.43 264.42 135.96 264.18 C 153.64 264.20 171.32 264.14 189.01 264.20 C 195.35 264.57 202.03 262.05 205.50 256.51 C 226.19 223.52 246.77 190.45 267.41 157.42 C 269.76 153.82 271.56 149.71 274.83 146.81 C 277.57 144.96 280.90 144.32 284.01 143.31 C 269.33 143.41 254.66 143.42 239.98 143.34 C 234.71 143.30 228.98 143.41 224.47 146.51 C 221.10 149.28 219.37 153.44 216.99 156.99 C 198.36 186.65 179.99 216.49 161.20 246.04 C 162.47 228.62 165.11 211.32 166.33 193.89 C 168.23 178.62 169.29 163.25 171.10 147.97 C 170.91 146.51 172.27 143.37 169.80 143.42 C 156.31 143.30 142.81 143.42 129.32 143.37 Z" />
<path fill="#f27722" opacity="1.00" d=" M 306.51 218.24 C 312.66 208.42 318.56 198.40 325.09 188.83 C 341.72 188.40 358.36 188.85 375.00 188.62 C 379.24 188.65 384.11 188.41 387.43 191.55 C 391.68 195.11 392.30 201.44 390.24 206.35 C 387.15 213.91 379.05 218.64 371.02 218.68 C 350.66 218.78 330.31 218.58 309.95 218.78 C 308.78 218.74 307.64 218.57 306.51 218.24 Z" />
</g>
<g id="#ffffffff">
<path fill="#ffffff" opacity="1.00" d=" M 215.99 70.39 C 224.48 70.25 233.31 71.37 241.35 67.95 C 234.37 80.28 226.42 92.03 219.11 104.16 C 216.82 107.73 214.87 112.02 210.76 113.85 C 205.55 116.37 199.60 115.61 194.00 115.69 C 149.34 115.67 104.67 115.69 60.01 115.68 C 55.31 115.52 50.82 117.02 46.59 118.92 C 53.84 106.50 61.76 94.49 69.22 82.20 C 71.14 79.22 72.81 75.93 75.60 73.64 C 79.14 71.04 83.69 70.46 87.96 70.37 C 130.63 70.42 173.31 70.39 215.99 70.39 Z" />
<path fill="#ffffff" opacity="1.00" d=" M 266.54 77.58 C 269.38 72.51 275.40 70.39 280.94 70.38 C 322.29 70.40 363.65 70.39 405.00 70.39 C 410.80 70.47 416.77 69.81 422.40 71.60 C 432.47 74.65 440.48 82.81 444.67 92.31 C 448.21 100.03 448.42 108.86 447.10 117.12 C 443.94 131.64 433.02 143.15 420.61 150.62 C 415.29 154.12 409.32 156.35 403.62 159.09 C 408.55 161.38 413.94 162.58 418.69 165.30 C 428.59 170.23 437.30 178.37 441.03 188.98 C 445.26 200.17 443.10 212.69 438.43 223.38 C 432.65 236.89 422.44 248.23 410.23 256.26 C 402.77 261.16 393.99 264.32 384.99 264.18 C 336.64 264.18 288.29 264.14 239.93 264.20 C 235.03 263.97 230.34 265.54 226.15 267.98 C 249.39 230.92 272.51 193.78 295.70 156.69 C 297.93 153.29 299.69 149.45 302.81 146.76 C 306.24 144.10 310.70 143.35 314.93 143.35 C 335.29 143.40 355.65 143.40 376.01 143.37 C 387.16 143.67 394.67 130.05 390.65 120.30 C 389.46 117.21 386.28 115.50 383.05 115.75 C 340.04 115.70 297.02 115.65 254.01 115.69 C 249.40 115.55 245.01 117.07 240.91 119.02 C 249.24 105.08 258.03 91.41 266.54 77.58 M 306.51 218.24 C 307.64 218.57 308.78 218.74 309.95 218.78 C 330.31 218.58 350.66 218.78 371.02 218.68 C 379.05 218.64 387.15 213.91 390.24 206.35 C 392.30 201.44 391.68 195.11 387.43 191.55 C 384.11 188.41 379.24 188.65 375.00 188.62 C 358.36 188.85 341.72 188.40 325.09 188.83 C 318.56 198.40 312.66 208.42 306.51 218.24 Z" />
<path fill="#ffffff" opacity="1.00" d=" M 129.32 143.37 C 142.81 143.42 156.31 143.30 169.80 143.42 C 172.27 143.37 170.91 146.51 171.10 147.97 C 169.29 163.25 168.23 178.62 166.33 193.89 C 165.11 211.32 162.47 228.62 161.20 246.04 C 179.99 216.49 198.36 186.65 216.99 156.99 C 219.37 153.44 221.10 149.28 224.47 146.51 C 228.98 143.41 234.71 143.30 239.98 143.34 C 254.66 143.42 269.33 143.41 284.01 143.31 C 280.90 144.32 277.57 144.96 274.83 146.81 C 271.56 149.71 269.76 153.82 267.41 157.42 C 246.77 190.45 226.19 223.52 205.50 256.51 C 202.03 262.05 195.35 264.57 189.01 264.20 C 171.32 264.14 153.64 264.20 135.96 264.18 C 129.43 264.42 123.29 260.51 119.94 255.05 C 118.07 252.02 118.78 248.31 118.98 244.96 C 122.70 211.13 125.55 177.19 129.32 143.37 Z" />
<path fill="#ffffff" opacity="1.00" d=" M 329.70 357.75 C 339.05 354.66 350.15 355.29 358.42 360.97 C 356.13 365.69 353.30 370.12 350.61 374.61 C 347.38 373.33 343.97 371.38 340.41 372.54 C 335.98 373.79 333.89 378.69 333.87 382.96 C 333.70 390.27 333.65 397.61 333.94 404.93 C 339.19 405.14 344.44 404.79 349.68 405.21 C 349.68 410.75 349.69 416.29 349.67 421.84 C 344.46 422.41 339.21 422.03 333.99 422.18 C 333.46 437.08 333.99 452.00 333.76 466.91 C 327.21 467.33 320.64 467.26 314.08 467.02 C 313.77 452.08 314.26 437.14 313.88 422.21 C 310.36 422.20 306.85 422.10 303.35 421.82 C 303.38 416.29 303.38 410.75 303.34 405.22 C 306.87 405.04 310.39 404.96 313.92 404.91 C 314.29 396.29 313.62 387.64 314.22 379.02 C 314.91 369.81 320.87 360.93 329.70 357.75 Z" />
<path fill="#ffffff" opacity="1.00" d=" M 397.11 356.09 C 403.70 355.90 410.30 355.91 416.89 356.10 C 417.14 379.15 416.72 402.22 417.09 425.27 C 427.15 419.11 436.07 411.26 446.00 404.91 C 450.29 407.92 454.13 411.53 457.90 415.17 C 451.32 421.08 443.62 425.61 436.81 431.25 C 437.30 432.38 437.80 433.52 438.44 434.58 C 445.68 445.36 453.29 455.92 460.11 466.98 C 452.49 467.22 444.84 467.40 437.22 466.90 C 431.90 458.79 427.62 450.02 422.08 442.05 C 420.29 443.49 417.32 444.39 417.11 447.03 C 416.57 453.67 417.26 460.34 416.88 467.00 C 410.30 467.28 403.70 467.28 397.12 466.99 C 396.99 430.03 397.00 393.06 397.11 356.09 Z" />
<path fill="#ffffff" opacity="1.00" d=" M 81.27 368.25 C 93.35 361.75 107.66 360.81 120.99 362.99 C 127.76 364.31 134.61 366.16 140.47 369.91 C 138.50 376.33 136.47 382.74 133.94 388.96 C 124.52 385.25 114.47 382.02 104.22 383.47 C 96.23 384.35 88.07 387.55 82.96 393.99 C 77.38 400.96 75.81 410.31 76.33 419.03 C 76.71 428.57 81.90 437.96 90.28 442.74 C 98.64 447.81 108.86 448.69 118.37 447.28 C 120.37 446.81 122.72 446.51 124.15 444.88 C 124.82 440.68 124.47 436.40 124.14 432.19 C 118.38 431.99 112.61 432.38 106.85 431.98 C 106.49 425.36 106.49 418.71 106.85 412.09 C 119.78 412.01 132.73 411.75 145.65 412.23 C 145.53 426.47 145.65 440.71 145.59 454.94 C 145.85 457.65 142.95 458.85 141.05 460.04 C 127.86 466.78 112.57 469.66 97.89 467.17 C 83.17 464.96 68.98 456.66 61.48 443.56 C 54.55 432.00 53.96 417.84 55.93 404.83 C 58.35 389.70 67.48 375.36 81.27 368.25 Z" />
<path fill="#ffffff" opacity="1.00" d=" M 364.33 373.41 C 371.36 370.89 379.99 377.34 378.21 384.97 C 376.69 393.34 364.79 395.70 359.38 389.62 C 354.21 384.54 357.42 374.97 364.33 373.41 Z" />
<path fill="#ffffff" opacity="1.00" d=" M 185.26 417.19 C 191.40 409.88 198.68 402.15 208.69 400.93 C 208.83 407.57 208.43 414.21 207.75 420.81 C 203.68 421.35 199.30 421.44 195.74 423.77 C 189.60 427.63 186.06 434.82 185.80 441.97 C 185.50 450.27 185.90 458.59 185.72 466.90 C 179.20 467.35 172.65 467.27 166.12 466.99 C 165.98 446.36 166.01 425.73 166.11 405.10 C 172.05 404.90 178.00 404.87 183.95 405.13 C 184.64 409.11 184.93 413.15 185.26 417.19 Z" />
<path fill="#ffffff" opacity="1.00" d=" M 220.31 417.32 C 224.77 408.83 233.21 402.06 242.94 401.12 C 248.25 400.74 253.87 400.83 258.75 403.22 C 262.07 404.93 264.72 407.62 267.60 409.95 C 268.09 408.31 268.60 406.67 269.10 405.04 C 275.12 404.92 281.14 404.91 287.16 405.09 C 287.63 416.38 287.21 427.70 287.35 439.00 C 287.21 448.33 287.65 457.66 287.15 466.98 C 280.57 467.25 273.97 467.41 267.40 466.84 C 267.32 464.57 267.25 462.31 267.15 460.05 C 262.92 463.06 258.63 466.32 253.42 467.36 C 244.20 469.17 233.92 467.52 226.52 461.45 C 220.76 456.89 217.70 449.70 216.66 442.57 C 215.59 434.06 216.25 425.02 220.31 417.32 M 248.39 417.58 C 236.28 420.53 232.81 437.39 240.78 446.18 C 246.49 453.44 258.67 453.72 264.65 446.66 C 268.80 442.53 267.05 436.20 267.41 430.98 C 268.35 421.19 256.84 415.43 248.39 417.58 Z" />
<path fill="#ffffff" opacity="1.00" d=" M 357.27 405.16 C 363.85 404.86 370.44 404.92 377.02 405.08 C 377.24 425.72 377.26 446.38 377.01 467.01 C 370.44 467.26 363.84 467.35 357.28 466.90 C 357.26 446.32 357.28 425.74 357.27 405.16 Z" />
</g>
<g id="#006fceff">
<path fill="#006fce" opacity="1.00" d=" M 11.08 335.83 C 26.38 335.56 41.69 335.78 57.00 335.71 C 154.33 335.71 251.67 335.71 349.00 335.71 C 398.64 335.79 448.28 335.55 497.92 335.83 C 498.10 382.57 497.96 429.32 497.99 476.06 C 498.31 488.82 486.81 500.30 474.06 499.99 C 327.69 500.01 181.31 500.00 34.94 499.99 C 22.18 500.29 10.72 488.82 11.01 476.06 C 11.04 429.32 10.90 382.57 11.08 335.83 M 329.70 357.75 C 320.87 360.93 314.91 369.81 314.22 379.02 C 313.62 387.64 314.29 396.29 313.92 404.91 C 310.39 404.96 306.87 405.04 303.34 405.22 C 303.38 410.75 303.38 416.29 303.35 421.82 C 306.85 422.10 310.36 422.20 313.88 422.21 C 314.26 437.14 313.77 452.08 314.08 467.02 C 320.64 467.26 327.21 467.33 333.76 466.91 C 333.99 452.00 333.46 437.08 333.99 422.18 C 339.21 422.03 344.46 422.41 349.67 421.84 C 349.69 416.29 349.68 410.75 349.68 405.21 C 344.44 404.79 339.19 405.14 333.94 404.93 C 333.65 397.61 333.70 390.27 333.87 382.96 C 333.89 378.69 335.98 373.79 340.41 372.54 C 343.97 371.38 347.38 373.33 350.61 374.61 C 353.30 370.12 356.13 365.69 358.42 360.97 C 350.15 355.29 339.05 354.66 329.70 357.75 M 397.11 356.09 C 397.00 393.06 396.99 430.03 397.12 466.99 C 403.70 467.28 410.30 467.28 416.88 467.00 C 417.26 460.34 416.57 453.67 417.11 447.03 C 417.32 444.39 420.29 443.49 422.08 442.05 C 427.62 450.02 431.90 458.79 437.22 466.90 C 444.84 467.40 452.49 467.22 460.11 466.98 C 453.29 455.92 445.68 445.36 438.44 434.58 C 437.80 433.52 437.30 432.38 436.81 431.25 C 443.62 425.61 451.32 421.08 457.90 415.17 C 454.13 411.53 450.29 407.92 446.00 404.91 C 436.07 411.26 427.15 419.11 417.09 425.27 C 416.72 402.22 417.14 379.15 416.89 356.10 C 410.30 355.91 403.70 355.90 397.11 356.09 M 81.27 368.25 C 67.48 375.36 58.35 389.70 55.93 404.83 C 53.96 417.84 54.55 432.00 61.48 443.56 C 68.98 456.66 83.17 464.96 97.89 467.17 C 112.57 469.66 127.86 466.78 141.05 460.04 C 142.95 458.85 145.85 457.65 145.59 454.94 C 145.65 440.71 145.53 426.47 145.65 412.23 C 132.73 411.75 119.78 412.01 106.85 412.09 C 106.49 418.71 106.49 425.36 106.85 431.98 C 112.61 432.38 118.38 431.99 124.14 432.19 C 124.47 436.40 124.82 440.68 124.15 444.88 C 122.72 446.51 120.37 446.81 118.37 447.28 C 108.86 448.69 98.64 447.81 90.28 442.74 C 81.90 437.96 76.71 428.57 76.33 419.03 C 75.81 410.31 77.38 400.96 82.96 393.99 C 88.07 387.55 96.23 384.35 104.22 383.47 C 114.47 382.02 124.52 385.25 133.94 388.96 C 136.47 382.74 138.50 376.33 140.47 369.91 C 134.61 366.16 127.76 364.31 120.99 362.99 C 107.66 360.81 93.35 361.75 81.27 368.25 M 364.33 373.41 C 357.42 374.97 354.21 384.54 359.38 389.62 C 364.79 395.70 376.69 393.34 378.21 384.97 C 379.99 377.34 371.36 370.89 364.33 373.41 M 185.26 417.19 C 184.93 413.15 184.64 409.11 183.95 405.13 C 178.00 404.87 172.05 404.90 166.11 405.10 C 166.01 425.73 165.98 446.36 166.12 466.99 C 172.65 467.27 179.20 467.35 185.72 466.90 C 185.90 458.59 185.50 450.27 185.80 441.97 C 186.06 434.82 189.60 427.63 195.74 423.77 C 199.30 421.44 203.68 421.35 207.75 420.81 C 208.43 414.21 208.83 407.57 208.69 400.93 C 198.68 402.15 191.40 409.88 185.26 417.19 M 220.31 417.32 C 216.25 425.02 215.59 434.06 216.66 442.57 C 217.70 449.70 220.76 456.89 226.52 461.45 C 233.92 467.52 244.20 469.17 253.42 467.36 C 258.63 466.32 262.92 463.06 267.15 460.05 C 267.25 462.31 267.32 464.57 267.40 466.84 C 273.97 467.41 280.57 467.25 287.15 466.98 C 287.65 457.66 287.21 448.33 287.35 439.00 C 287.21 427.70 287.63 416.38 287.16 405.09 C 281.14 404.91 275.12 404.92 269.10 405.04 C 268.60 406.67 268.09 408.31 267.60 409.95 C 264.72 407.62 262.07 404.93 258.75 403.22 C 253.87 400.83 248.25 400.74 242.94 401.12 C 233.21 402.06 224.77 408.83 220.31 417.32 M 357.27 405.16 C 357.28 425.74 357.26 446.32 357.28 466.90 C 363.84 467.35 370.44 467.26 377.01 467.01 C 377.26 446.38 377.24 425.72 377.02 405.08 C 370.44 404.92 363.85 404.86 357.27 405.16 Z" />
<path fill="#006fce" opacity="1.00" d=" M 248.39 417.58 C 256.84 415.43 268.35 421.19 267.41 430.98 C 267.05 436.20 268.80 442.53 264.65 446.66 C 258.67 453.72 246.49 453.44 240.78 446.18 C 232.81 437.39 236.28 420.53 248.39 417.58 Z" />
</g>
</svg>
